<svg width="59" height="66" viewBox="0 0 59 66" fill="none" xmlns="http://www.w3.org/2000/svg">
<path d="M48.3353 51.2059C46.5387 51.2059 45.0671 52.644 45.0671 54.4204C45.0671 55.8209 45.9749 56.9957 47.2554 57.4375C47.5899 57.5691 47.9626 57.6255 48.3353 57.6255C48.708 57.6255 49.0807 57.5597 49.4151 57.4375C50.6861 57.0051 51.594 55.8209 51.594 54.4204C51.594 52.644 50.1319 51.2059 48.3353 51.2059ZM48.3353 55.5013C47.7332 55.5013 47.2268 55.0219 47.2268 54.4298C47.2268 53.8377 47.7141 53.3395 48.3353 53.3395C48.9564 53.3395 49.4247 53.8283 49.4247 54.4298C49.4247 55.0313 48.9373 55.5013 48.3353 55.5013ZM47.7619 47.108L47.4466 47.4087C46.7681 48.0573 46.0418 48.6776 45.2773 49.2416C45.2677 49.2509 45.2677 49.2603 45.2582 49.2603H48.6315V49.2416H56.8308V63.8664H38.8842V55.1441C38.8842 55.1441 38.8938 55.1441 38.9033 55.1347V52.8414C38.4255 53.0294 37.9381 53.2173 37.4508 53.3771L36.715 53.6215V66H59V47.108H47.7619ZM48.3353 57.6349C48.7175 57.6349 49.0807 57.5691 49.4151 57.4469C50.6861 57.0145 51.594 55.8303 51.594 54.4298C51.594 52.6534 50.1319 51.2153 48.3353 51.2153C46.5387 51.2153 45.0671 52.6534 45.0671 54.4298C45.0671 55.8303 45.9749 57.0051 47.2554 57.4469C47.5899 57.5785 47.9626 57.6349 48.3353 57.6349ZM47.2268 54.4298C47.2268 53.8189 47.7141 53.3395 48.3353 53.3395C48.9564 53.3395 49.4247 53.8283 49.4247 54.4298C49.4247 55.0313 48.9373 55.5013 48.3353 55.5013C47.7332 55.5013 47.2268 55.0219 47.2268 54.4298ZM48.3353 51.2153C46.5387 51.2153 45.0671 52.6534 45.0671 54.4298C45.0671 55.8303 45.9749 57.0051 47.2554 57.4469C47.5899 57.5785 47.9626 57.6349 48.3353 57.6349C48.708 57.6349 49.0807 57.5691 49.4151 57.4469C50.6861 57.0145 51.594 55.8303 51.594 54.4298C51.594 52.6534 50.1319 51.2153 48.3353 51.2153ZM48.3353 55.5107C47.7332 55.5107 47.2268 55.0313 47.2268 54.4392C47.2268 53.8471 47.7141 53.3489 48.3353 53.3489C48.9564 53.3489 49.4247 53.8377 49.4247 54.4392C49.4247 55.0407 48.9373 55.5107 48.3353 55.5107ZM48.3353 51.2153C46.5387 51.2153 45.0671 52.6534 45.0671 54.4298C45.0671 55.8303 45.9749 57.0051 47.2554 57.4469C47.5899 57.5785 47.9626 57.6349 48.3353 57.6349C48.708 57.6349 49.0807 57.5691 49.4151 57.4469C50.6861 57.0145 51.594 55.8303 51.594 54.4298C51.594 52.6534 50.1319 51.2153 48.3353 51.2153ZM48.3353 55.5107C47.7332 55.5107 47.2268 55.0313 47.2268 54.4392C47.2268 53.8471 47.7141 53.3489 48.3353 53.3489C48.9564 53.3489 49.4247 53.8377 49.4247 54.4392C49.4247 55.0407 48.9373 55.5107 48.3353 55.5107Z" fill="black"/>
<path d="M48.3353 51.2059C46.5387 51.2059 45.0671 52.644 45.0671 54.4204C45.0671 55.8209 45.9749 56.9957 47.2554 57.4375C47.5899 57.5691 47.9626 57.6255 48.3353 57.6255C48.708 57.6255 49.0807 57.5597 49.4151 57.4375C50.6861 57.0051 51.594 55.8209 51.594 54.4204C51.594 52.644 50.1319 51.2059 48.3353 51.2059ZM48.3353 55.5013C47.7332 55.5013 47.2268 55.0219 47.2268 54.4298C47.2268 53.8377 47.7141 53.3395 48.3353 53.3395C48.9564 53.3395 49.4247 53.8283 49.4247 54.4298C49.4247 55.0313 48.9373 55.5013 48.3353 55.5013Z" fill="black"/>
<path d="M54.3461 42.0043C54.2506 41.7975 54.1359 41.6095 54.0212 41.4215C53.6963 40.914 53.3141 40.4534 52.8936 40.0493C51.5939 38.8368 49.8739 38.1319 48.02 38.1319C44.1401 38.1319 40.9866 41.2335 40.9866 45.0495V49.2509H55.0629V45.0495C55.0629 43.9875 54.824 42.9536 54.3461 42.0137V42.0043ZM43.1558 47.1079V45.0401C43.1558 42.399 45.3347 40.2561 48.02 40.2561C49.5012 40.2561 50.8772 40.9046 51.8042 42.0231C51.9475 42.1828 52.0622 42.3614 52.1864 42.5494C52.54 43.1133 52.7694 43.7431 52.8554 44.4104C52.884 44.6172 52.9032 44.824 52.9032 45.0401V47.1079H43.1558Z" fill="black"/>
<path d="M48.3353 51.2059C46.5387 51.2059 45.0671 52.644 45.0671 54.4204C45.0671 55.8209 45.9749 56.9957 47.2554 57.4375C47.5899 57.5691 47.9626 57.6255 48.3353 57.6255C48.708 57.6255 49.0807 57.5597 49.4151 57.4375C50.6861 57.0051 51.594 55.8209 51.594 54.4204C51.594 52.644 50.1319 51.2059 48.3353 51.2059ZM48.3353 55.5013C47.7332 55.5013 47.2268 55.0219 47.2268 54.4298C47.2268 53.8377 47.7141 53.3395 48.3353 53.3395C48.9564 53.3395 49.4247 53.8283 49.4247 54.4298C49.4247 55.0313 48.9373 55.5013 48.3353 55.5013Z" fill="black"/>
<path d="M49.4247 56.5632H47.2554V60.8962H49.4247V56.5632Z" fill="black"/>
<path d="M36.6863 47.0798V55.8772H36.7054L37.9095 55.4731C37.9859 55.4543 38.0719 55.4167 38.1484 55.3979C38.3873 55.3133 38.6357 55.2287 38.8746 55.1441H38.8937V52.8319C39.19 52.7286 39.4576 52.6064 39.7347 52.4654C39.4576 52.597 39.1709 52.7098 38.8937 52.8131V49.2415H48.6219C48.6219 49.2415 48.6315 49.2321 48.6315 49.2227C48.7366 49.1381 48.8513 49.0441 48.9469 48.9502H48.9564L50.8963 47.0985L50.9155 47.0798H36.6767H36.6863Z" fill="black"/>
<path d="M28.9266 0C12.9773 0 0 12.7639 0 28.4508C0 44.1378 12.9773 56.9016 28.9266 56.9016C31.5737 56.9016 34.1825 56.5539 36.6958 55.8583C36.7053 55.8583 36.7053 55.8489 36.7149 55.8489C37.1162 55.7456 37.5176 55.614 37.919 55.4824C37.9954 55.4636 38.0814 55.426 38.1579 55.4072L38.8841 55.1722H38.9033V49.2602H48.641L48.6601 49.2414L48.9564 48.9689H48.9659C49.5966 48.3767 50.1891 47.7564 50.7529 47.1173C50.7529 47.1173 50.7625 47.1079 50.7625 47.0985C51.5174 46.2526 52.2246 45.3596 52.8553 44.4197C53.2853 43.7994 53.6867 43.1697 54.0594 42.5211C54.1549 42.352 54.2505 42.1828 54.3556 42.0136C56.6395 37.8874 57.8532 33.2161 57.8532 28.4602C57.8532 12.7733 44.8759 0.00939902 28.9266 0.00939902V0ZM52.9031 40.0398C52.6642 40.5192 52.4157 40.9891 52.1481 41.4497C52.043 41.6376 51.9188 41.835 51.8137 42.023C50.6765 43.8652 49.3195 45.5664 47.7618 47.0797H36.7053V53.5932C34.2016 54.3451 31.5928 54.7211 28.9362 54.7211C14.2005 54.7211 2.22658 42.9347 2.22658 28.4508C2.22658 13.9669 14.2101 2.18057 28.9362 2.18057C43.6623 2.18057 55.6457 13.9669 55.6457 28.4508C55.6457 32.4924 54.7188 36.4588 52.9031 40.0398Z" fill="black"/>
<path d="M33.7334 29.6632C32.5198 28.9771 31.1246 28.6011 29.6338 28.6011C28.143 28.6011 26.7383 28.9865 25.5246 29.6632C26.7383 30.3494 28.1335 30.7253 29.6338 30.7253C33.0549 30.7253 35.8262 33.4604 35.8262 36.8347C35.8262 40.2089 33.0549 42.9252 29.6338 42.9252C26.2127 42.9252 23.4223 40.1995 23.4223 36.8347C23.4223 36.3365 23.4892 35.8572 23.6038 35.3872H21.3964C21.3008 35.8572 21.253 36.3459 21.253 36.8347C21.253 40.9984 24.4257 44.4573 28.5253 44.9836C28.8788 45.04 29.2515 45.0588 29.6338 45.0588C30.016 45.0588 30.3696 45.04 30.7232 44.9836C34.8324 44.4573 37.9955 41.0078 37.9955 36.8347C37.9955 33.7518 36.2753 31.0731 33.7238 29.6632H33.7334Z" fill="black"/>
<path d="M30.7327 14.3428C30.3791 14.2864 30.0065 14.2676 29.6433 14.2676C29.2802 14.2676 28.898 14.2864 28.5348 14.3428C24.4448 14.8786 21.2626 18.328 21.2626 22.4918C21.2626 25.5747 22.9827 28.2534 25.5342 29.6632C26.7478 30.3494 28.143 30.7253 29.6433 30.7253C31.1437 30.7253 32.5293 30.34 33.743 29.6632L29.6433 28.6011C26.2222 28.6011 23.4318 25.866 23.4318 22.4918C23.4318 19.1175 26.2127 16.4012 29.6433 16.4012C33.074 16.4012 35.8358 19.1363 35.8358 22.4918H38.005C38.005 18.3186 34.8419 14.8598 30.7327 14.3428Z" fill="black"/>
<path d="M30.7232 8.26177H28.5253V15.0197H30.7232V8.26177Z" fill="black"/>
<path d="M30.7232 44.1001H28.5253V50.8674H30.7232V44.1001Z" fill="black"/>
</svg>
