<svg width="1126" height="374" viewBox="0 0 1126 374" fill="none" xmlns="http://www.w3.org/2000/svg">
<g filter="url(#filter0_d_20_3)">
<rect x="6.84387" y="6.17236" width="344.074" height="344.074" rx="32.3965" fill="white"/>
</g>
<g filter="url(#filter1_d_20_3)">
<rect x="382.043" y="6.17236" width="344.074" height="344.074" rx="32.3965" fill="white"/>
</g>
<g filter="url(#filter2_d_20_3)">
<rect x="758.926" y="6.17236" width="344.074" height="344.074" rx="32.3965" fill="white"/>
</g>
<path d="M77.5089 60.6798C77.5089 72.2952 68.0928 81.7112 56.4775 81.7112C44.8622 81.7112 35.4461 72.2952 35.4461 60.6798C35.4461 49.0645 44.8622 39.6484 56.4775 39.6484C68.0928 39.6484 77.5089 49.0645 77.5089 60.6798Z" fill="#0099F5"/>
<path d="M452.71 60.6798C452.71 72.2952 443.293 81.7112 431.678 81.7112C420.063 81.7112 410.647 72.2952 410.647 60.6798C410.647 49.0645 420.063 39.6484 431.678 39.6484C443.293 39.6484 452.71 49.0645 452.71 60.6798Z" fill="#0099F5"/>
<path d="M829.592 60.6798C829.592 72.2952 820.176 81.7112 808.56 81.7112C796.945 81.7112 787.529 72.2952 787.529 60.6798C787.529 49.0645 796.945 39.6484 808.56 39.6484C820.176 39.6484 829.592 49.0645 829.592 60.6798Z" fill="#0099F5"/>
<path d="M55.6011 73.1729V54.8399H55.5068L49.7208 58.8336V54.5569L55.5854 50.4847H60.3023V73.1729H55.6011Z" fill="white"/>
<path d="M422.877 57.3084C422.877 53.0161 426.304 49.9816 431.257 49.9816C436.037 49.9816 439.323 52.7488 439.323 56.538C439.323 59.3681 437.436 61.4907 434.936 63.975L429.402 69.305V69.3994H439.638V73.1729H423.144V69.9811L431.697 61.7423C433.993 59.4468 434.701 58.299 434.701 56.7267C434.701 55.0286 433.207 53.6764 431.1 53.6764C428.899 53.6764 427.279 55.2173 427.279 57.3084V57.3871H422.877V57.3084Z" fill="white"/>
<path d="M805.121 63.2674V59.8398H807.872C810.042 59.8398 811.504 58.5505 811.504 56.6795C811.504 54.8399 810.199 53.6293 807.841 53.6293C805.64 53.6293 804.177 54.9343 804.052 56.9154H799.681C799.854 52.7174 803.124 49.9816 808.045 49.9816C812.762 49.9816 815.985 52.4029 815.985 56.0349C815.985 58.8178 814.083 60.8304 811.3 61.3335V61.4278C814.68 61.7109 816.866 63.7548 816.866 66.8994C816.866 70.9716 813.171 73.676 807.935 73.676C802.809 73.676 799.46 70.8616 799.24 66.6793H803.784C803.926 68.5975 805.498 69.8553 807.998 69.8553C810.372 69.8553 812.039 68.5189 812.039 66.6007C812.039 64.5253 810.482 63.2674 807.919 63.2674H805.121Z" fill="white"/>
<rect x="35.4461" y="107.123" width="285.186" height="8.41256" fill="#D9D9D9"/>
<rect x="35.4459" y="123.107" width="285.186" height="8.41256" fill="#D9D9D9"/>
<rect x="35.4459" y="139.091" width="285.186" height="8.41256" fill="#D9D9D9"/>
<rect x="35.4459" y="155.075" width="285.186" height="8.41256" fill="#D9D9D9"/>
<rect x="35.4459" y="187.042" width="285.186" height="8.41256" fill="#D9D9D9"/>
<rect x="35.4459" y="203.026" width="285.186" height="8.41256" fill="#D9D9D9"/>
<rect x="410.647" y="107.123" width="285.186" height="8.41256" fill="#D9D9D9"/>
<rect x="410.647" y="123.107" width="285.186" height="8.41256" fill="#D9D9D9"/>
<rect x="410.647" y="139.091" width="285.186" height="8.41256" fill="#D9D9D9"/>
<rect x="410.647" y="155.075" width="285.186" height="8.41256" fill="#D9D9D9"/>
<rect x="410.647" y="187.042" width="285.186" height="8.41256" fill="#D9D9D9"/>
<rect x="410.647" y="203.026" width="285.186" height="8.41256" fill="#D9D9D9"/>
<rect x="787.529" y="107.123" width="285.186" height="8.41256" fill="#D9D9D9"/>
<rect x="787.529" y="123.107" width="285.186" height="8.41256" fill="#D9D9D9"/>
<rect x="787.529" y="139.091" width="285.186" height="8.41256" fill="#D9D9D9"/>
<rect x="787.529" y="155.075" width="285.186" height="8.41256" fill="#D9D9D9"/>
<rect x="787.529" y="187.042" width="285.186" height="8.41256" fill="#D9D9D9"/>
<rect x="787.529" y="203.026" width="285.186" height="8.41256" fill="#D9D9D9"/>
<rect x="35.4461" y="246.771" width="210.314" height="33.6502" rx="16.8251" fill="#A4DAF6"/>
<rect x="410.647" y="246.771" width="210.314" height="33.6502" rx="16.8251" fill="#A4DAF6"/>
<rect x="787.529" y="246.771" width="210.314" height="33.6502" rx="16.8251" fill="#A4DAF6"/>
<defs>
<filter id="filter0_d_20_3" x="0.0143328" y="0.218407" width="373.493" height="373.493" filterUnits="userSpaceOnUse" color-interpolation-filters="sRGB">
<feFlood flood-opacity="0" result="BackgroundImageFix"/>
<feColorMatrix in="SourceAlpha" type="matrix" values="0 0 0 0 0 0 0 0 0 0 0 0 0 0 0 0 0 0 127 0" result="hardAlpha"/>
<feOffset dx="7.88024" dy="8.75582"/>
<feGaussianBlur stdDeviation="7.35489"/>
<feComposite in2="hardAlpha" operator="out"/>
<feColorMatrix type="matrix" values="0 0 0 0 0 0 0 0 0 0 0 0 0 0 0 0 0 0 0.2 0"/>
<feBlend mode="normal" in2="BackgroundImageFix" result="effect1_dropShadow_20_3"/>
<feBlend mode="normal" in="SourceGraphic" in2="effect1_dropShadow_20_3" result="shape"/>
</filter>
<filter id="filter1_d_20_3" x="375.214" y="0.218407" width="373.493" height="373.493" filterUnits="userSpaceOnUse" color-interpolation-filters="sRGB">
<feFlood flood-opacity="0" result="BackgroundImageFix"/>
<feColorMatrix in="SourceAlpha" type="matrix" values="0 0 0 0 0 0 0 0 0 0 0 0 0 0 0 0 0 0 127 0" result="hardAlpha"/>
<feOffset dx="7.88024" dy="8.75582"/>
<feGaussianBlur stdDeviation="7.35489"/>
<feComposite in2="hardAlpha" operator="out"/>
<feColorMatrix type="matrix" values="0 0 0 0 0 0 0 0 0 0 0 0 0 0 0 0 0 0 0.2 0"/>
<feBlend mode="normal" in2="BackgroundImageFix" result="effect1_dropShadow_20_3"/>
<feBlend mode="normal" in="SourceGraphic" in2="effect1_dropShadow_20_3" result="shape"/>
</filter>
<filter id="filter2_d_20_3" x="752.097" y="0.218407" width="373.493" height="373.493" filterUnits="userSpaceOnUse" color-interpolation-filters="sRGB">
<feFlood flood-opacity="0" result="BackgroundImageFix"/>
<feColorMatrix in="SourceAlpha" type="matrix" values="0 0 0 0 0 0 0 0 0 0 0 0 0 0 0 0 0 0 127 0" result="hardAlpha"/>
<feOffset dx="7.88024" dy="8.75582"/>
<feGaussianBlur stdDeviation="7.35489"/>
<feComposite in2="hardAlpha" operator="out"/>
<feColorMatrix type="matrix" values="0 0 0 0 0 0 0 0 0 0 0 0 0 0 0 0 0 0 0.2 0"/>
<feBlend mode="normal" in2="BackgroundImageFix" result="effect1_dropShadow_20_3"/>
<feBlend mode="normal" in="SourceGraphic" in2="effect1_dropShadow_20_3" result="shape"/>
</filter>
</defs>
</svg>
