<svg width="55" height="67" viewBox="0 0 55 67" fill="none" xmlns="http://www.w3.org/2000/svg">
<path d="M27.412 50.8946C20.6792 50.8946 14.3456 48.2672 9.57922 43.5004C4.81873 38.7277 2.19489 32.3857 2.19489 25.6439C2.19489 18.9022 4.81873 12.5602 9.57922 7.78747C14.3397 3.01477 20.6733 0.393311 27.412 0.393311C34.1448 0.393311 40.4784 3.02065 45.2447 7.78747C50.0111 12.5543 52.6291 18.8963 52.6291 25.6439C52.6291 32.3916 50.0052 38.7277 45.2389 43.4945C40.4784 48.2672 34.1448 50.8946 27.412 50.8946ZM27.412 4.25497C15.637 4.25497 6.05141 13.8474 6.05141 25.6439C6.05141 37.4405 15.6311 47.0329 27.412 47.0329C39.1929 47.0329 48.7725 37.4405 48.7725 25.6439C48.7725 13.8474 39.187 4.25497 27.412 4.25497Z" fill="black"/>
<path d="M27.412 43.4251C22.6691 43.4251 18.208 41.5736 14.8562 38.2175C11.5045 34.8613 9.65552 30.3942 9.65552 25.6451C9.65552 20.8959 11.5045 16.4288 14.8562 13.0726C18.208 9.71647 22.6691 7.86499 27.412 7.86499C32.1548 7.86499 36.616 9.71647 39.9677 13.0726C43.3194 16.4288 45.1684 20.8959 45.1684 25.6451C45.1684 30.3942 43.3194 34.8613 39.9677 38.2175C36.616 41.5736 32.1548 43.4251 27.412 43.4251ZM27.412 10.5864C19.1178 10.5864 12.3733 17.3399 12.3733 25.6451C12.3733 33.9503 19.1178 40.7037 27.412 40.7037C35.7061 40.7037 42.4506 33.9503 42.4506 25.6451C42.4506 17.3399 35.7061 10.5864 27.412 10.5864Z" fill="black"/>
<path d="M25.4044 33.1154C24.929 33.1154 24.4476 32.9332 24.0837 32.5747L16.8696 25.4803C16.1241 24.7515 16.1182 23.5524 16.8461 22.8059C17.574 22.0595 18.7714 22.0536 19.5169 22.7824L25.4103 28.5837L35.1485 19.0853C35.8939 18.3565 37.0914 18.3741 37.8193 19.1206C38.5471 19.8671 38.5295 21.0661 37.784 21.795L26.7193 32.5806C26.3554 32.9391 25.8799 33.1154 25.4044 33.1154Z" fill="black"/>
<path d="M16.8638 66.5998C16.3942 66.5998 15.9422 66.4235 15.59 66.1061L1.53747 53.2222C0.921128 52.6579 0.7509 51.7528 1.11483 50.9945L4.23175 44.629C4.6896 43.6944 5.82249 43.3065 6.75581 43.7649C7.68912 44.2234 8.07654 45.3578 7.61868 46.2924L5.12398 51.3883L16.1887 61.5274L19.5815 53.7277C19.9983 52.7696 21.1077 52.3346 22.0645 52.752C23.0213 53.1693 23.4557 54.2802 23.0389 55.2382L18.5895 65.4655C18.3489 66.0238 17.8499 66.4294 17.2512 66.5587C17.1279 66.5881 16.9988 66.5998 16.8638 66.5998Z" fill="black"/>
<path d="M38.1363 66.5998C38.0071 66.5998 37.8721 66.5881 37.743 66.5587C37.1443 66.4294 36.6512 66.0238 36.4047 65.4655L31.9553 55.2382C31.5385 54.2802 31.9788 53.1693 32.9297 52.752C33.8865 52.3346 34.9959 52.7755 35.4126 53.7277L38.8054 61.5274L49.8702 51.3883L47.3755 46.2924C46.9177 45.3578 47.3051 44.2234 48.2384 43.7649C49.1717 43.3065 50.3046 43.6944 50.7624 44.629L53.8794 50.9945C54.2492 51.7469 54.0789 52.652 53.4567 53.2222L39.3983 66.1061C39.0579 66.4294 38.6 66.5998 38.1363 66.5998Z" fill="black"/>
</svg>
