<svg width="72" height="78" viewBox="0 0 72 78" fill="none" xmlns="http://www.w3.org/2000/svg">
<path d="M35.9999 63.026C47.3979 63.026 56.6639 53.76 56.6639 42.362C56.6639 30.964 47.3979 21.78 35.9999 21.78C24.6019 21.78 15.3359 31.046 15.3359 42.444C15.3359 53.842 24.6019 63.026 35.9999 63.026ZM35.9999 26.208C44.9379 26.208 52.2359 33.506 52.2359 42.444C52.2359 51.382 44.9379 58.598 35.9999 58.598C27.0619 58.598 19.7639 51.3 19.7639 42.362C19.7639 33.424 27.0619 26.208 35.9999 26.208Z" fill="black"/>
<path d="M36 6.93769H25.258L28.3741 3.82155C29.2761 2.91962 29.2761 1.52542 28.3741 0.705416C27.4722 -0.114584 26.078 -0.196516 25.258 0.705416L18.37 7.59341C17.468 8.49535 17.468 9.88955 18.37 10.7096L25.258 17.5976C25.668 18.0076 26.2418 18.2537 26.816 18.2537C27.3899 18.2537 27.9641 18.0076 28.3741 17.5976C29.2761 16.6956 29.2761 15.3014 28.3741 14.4814L25.258 11.3653L36 11.3655C53.138 11.3655 67.078 25.3055 67.078 42.4435C67.078 59.5815 53.138 73.5215 36 73.5215C18.862 73.5215 4.92198 59.5815 4.92198 42.4435C4.92198 33.7515 8.44812 25.6335 14.762 19.7295C15.6639 18.9095 15.6639 17.5157 14.8439 16.6134C14.0239 15.7115 12.6301 15.7115 11.7278 16.5315C4.59379 23.1734 0.49379 32.6035 0.49379 42.4435C0.49379 62.0415 16.4018 77.9495 35.9998 77.9495C55.5978 77.9495 71.5058 62.0415 71.5058 42.4435C71.5058 22.8455 55.5978 6.93746 35.9998 6.93746L36 6.93769Z" fill="black"/>
<path d="M32.556 48.1846C32.966 48.5946 33.5398 48.8407 34.114 48.8407C34.6879 48.8407 35.2621 48.5946 35.6721 48.1846L44.0361 39.8206C44.938 38.9186 44.938 37.5244 44.0361 36.7044C43.1342 35.8025 41.74 35.8844 40.92 36.7044L34.1138 43.5106L31.08 40.3944C30.178 39.4925 28.7838 39.4925 27.9638 40.3944C27.0619 41.2964 27.0619 42.6906 27.9638 43.5106L32.556 48.1846Z" fill="black"/>
</svg>
