<svg width="59" height="66" viewBox="0 0 59 66" fill="none" xmlns="http://www.w3.org/2000/svg">
<path d="M48.3897 51.079C46.6093 51.079 45.1508 52.5011 45.1508 54.2579C45.1508 55.6429 46.0505 56.8048 47.3195 57.2417C47.651 57.3718 48.0204 57.4276 48.3897 57.4276C48.7591 57.4276 49.1284 57.3625 49.4599 57.2417C50.7194 56.8141 51.6191 55.6429 51.6191 54.2579C51.6191 52.5011 50.1701 51.079 48.3897 51.079ZM48.3897 55.3269C47.7931 55.3269 47.2911 54.8528 47.2911 54.2672C47.2911 53.6816 47.7741 53.189 48.3897 53.189C49.0053 53.189 49.4693 53.6723 49.4693 54.2672C49.4693 54.8621 48.9863 55.3269 48.3897 55.3269ZM47.8215 47.0262L47.509 47.3237C46.8366 47.9651 46.1168 48.5785 45.3592 49.1363C45.3497 49.1456 45.3497 49.1549 45.3402 49.1549H48.6833V49.1363H56.8089V63.5996H39.0235V54.9737C39.0235 54.9737 39.033 54.9737 39.0425 54.9644V52.6963C38.5689 52.8822 38.0859 53.0681 37.6029 53.2262L36.8737 53.4678V65.7096H58.9586V47.0262H47.8215ZM48.3897 57.4369C48.7685 57.4369 49.1284 57.3718 49.4599 57.251C50.7194 56.8234 51.6191 55.6522 51.6191 54.2672C51.6191 52.5104 50.1701 51.0883 48.3897 51.0883C46.6093 51.0883 45.1508 52.5104 45.1508 54.2672C45.1508 55.6522 46.0505 56.8141 47.3195 57.251C47.651 57.3811 48.0204 57.4369 48.3897 57.4369ZM47.2911 54.2672C47.2911 53.663 47.7741 53.189 48.3897 53.189C49.0053 53.189 49.4693 53.6723 49.4693 54.2672C49.4693 54.8621 48.9863 55.3269 48.3897 55.3269C47.7931 55.3269 47.2911 54.8528 47.2911 54.2672ZM48.3897 51.0883C46.6093 51.0883 45.1508 52.5104 45.1508 54.2672C45.1508 55.6522 46.0505 56.8141 47.3195 57.251C47.651 57.3811 48.0204 57.4369 48.3897 57.4369C48.7591 57.4369 49.1284 57.3718 49.4599 57.251C50.7194 56.8234 51.6191 55.6522 51.6191 54.2672C51.6191 52.5104 50.1701 51.0883 48.3897 51.0883ZM48.3897 55.3362C47.7931 55.3362 47.2911 54.8621 47.2911 54.2765C47.2911 53.6909 47.7741 53.1983 48.3897 53.1983C49.0053 53.1983 49.4693 53.6816 49.4693 54.2765C49.4693 54.8714 48.9863 55.3362 48.3897 55.3362ZM48.3897 51.0883C46.6093 51.0883 45.1508 52.5104 45.1508 54.2672C45.1508 55.6522 46.0505 56.8141 47.3195 57.251C47.651 57.3811 48.0204 57.4369 48.3897 57.4369C48.7591 57.4369 49.1284 57.3718 49.4599 57.251C50.7194 56.8234 51.6191 55.6522 51.6191 54.2672C51.6191 52.5104 50.1701 51.0883 48.3897 51.0883ZM48.3897 55.3362C47.7931 55.3362 47.2911 54.8621 47.2911 54.2765C47.2911 53.6909 47.7741 53.1983 48.3897 53.1983C49.0053 53.1983 49.4693 53.6816 49.4693 54.2765C49.4693 54.8714 48.9863 55.3362 48.3897 55.3362Z" fill="black"/>
<path d="M48.3897 51.079C46.6093 51.079 45.1508 52.5011 45.1508 54.2579C45.1508 55.6429 46.0505 56.8048 47.3195 57.2417C47.651 57.3718 48.0204 57.4276 48.3897 57.4276C48.7591 57.4276 49.1284 57.3625 49.4599 57.2417C50.7194 56.8141 51.6191 55.6429 51.6191 54.2579C51.6191 52.5011 50.1701 51.079 48.3897 51.079ZM48.3897 55.3269C47.7931 55.3269 47.2911 54.8528 47.2911 54.2672C47.2911 53.6816 47.7741 53.189 48.3897 53.189C49.0053 53.189 49.4693 53.6723 49.4693 54.2672C49.4693 54.8621 48.9863 55.3269 48.3897 55.3269Z" fill="black"/>
<path d="M54.3466 41.9789C54.2519 41.7744 54.1382 41.5885 54.0246 41.4026C53.7026 40.9006 53.3238 40.4452 52.9071 40.0455C51.6191 38.8464 49.9145 38.1493 48.0772 38.1493C44.2322 38.1493 41.107 41.2167 41.107 44.9905V49.1455H55.0569V44.9905C55.0569 43.9402 54.8201 42.9177 54.3466 41.9882V41.9789ZM43.2568 47.0262V44.9813C43.2568 42.3693 45.416 40.25 48.0772 40.25C49.5451 40.25 50.9088 40.8913 51.8275 41.9975C51.9695 42.1555 52.0832 42.3321 52.2063 42.518C52.5567 43.0757 52.784 43.6985 52.8692 44.3585C52.8976 44.563 52.9165 44.7675 52.9165 44.9813V47.0262H43.2568Z" fill="black"/>
<path d="M48.3897 51.079C46.6093 51.079 45.1508 52.5011 45.1508 54.2579C45.1508 55.6429 46.0505 56.8048 47.3195 57.2417C47.651 57.3718 48.0204 57.4276 48.3897 57.4276C48.7591 57.4276 49.1284 57.3625 49.4599 57.2417C50.7194 56.8141 51.6191 55.6429 51.6191 54.2579C51.6191 52.5011 50.1701 51.079 48.3897 51.079ZM48.3897 55.3269C47.7931 55.3269 47.2911 54.8528 47.2911 54.2672C47.2911 53.6816 47.7741 53.189 48.3897 53.189C49.0053 53.189 49.4693 53.6723 49.4693 54.2672C49.4693 54.8621 48.9863 55.3269 48.3897 55.3269Z" fill="black"/>
<path d="M49.4693 56.3771H47.3195V60.6622H49.4693V56.3771Z" fill="black"/>
<path d="M36.8453 46.9983V55.6987H36.8642L38.0575 55.299C38.1333 55.2804 38.2185 55.2432 38.2943 55.2246C38.531 55.1409 38.7773 55.0573 39.014 54.9736H39.033V52.687C39.3265 52.5848 39.5917 52.4639 39.8664 52.3245C39.5917 52.4546 39.3076 52.5662 39.033 52.6684V49.1362H48.6738C48.6738 49.1362 48.6833 49.1269 48.6833 49.1176C48.7874 49.034 48.9011 48.941 48.9958 48.8481H49.0053L50.9277 47.0169L50.9467 46.9983H36.8358H36.8453Z" fill="black"/>
<path d="M29.1553 0.438477C13.3493 0.438477 0.488525 13.0614 0.488525 28.5751C0.488525 44.0888 13.3493 56.7118 29.1553 56.7118C31.7786 56.7118 34.364 56.3678 36.8547 55.68C36.8642 55.68 36.8642 55.6707 36.8737 55.6707C37.2714 55.5684 37.6692 55.4383 38.0669 55.3082C38.1427 55.2896 38.2279 55.2524 38.3037 55.2338L39.0234 55.0014H39.0424V49.1547H48.6927L48.7116 49.1362L49.0052 48.8666H49.0147C49.6397 48.281 50.2269 47.6675 50.7856 47.0354C50.7856 47.0354 50.7951 47.0261 50.7951 47.0168C51.5433 46.1803 52.2441 45.2972 52.8691 44.3677C53.2953 43.7542 53.693 43.1314 54.0624 42.4901C54.1571 42.3228 54.2518 42.1554 54.356 41.9881C56.6194 37.9075 57.8221 33.2878 57.8221 28.5844C57.8221 13.0707 44.9614 0.447772 29.1553 0.447772V0.438477ZM52.9165 40.0361C52.6797 40.5102 52.4335 40.9749 52.1683 41.4304C52.0641 41.6163 51.941 41.8115 51.8369 41.9974C50.7099 43.8193 49.3651 45.5017 47.8214 46.9982H36.8642V53.4398C34.383 54.1835 31.7976 54.5553 29.1648 54.5553C14.5615 54.5553 2.69511 42.8991 2.69511 28.5751C2.69511 14.2512 14.571 2.59497 29.1648 2.59497C43.7586 2.59497 55.6345 14.2512 55.6345 28.5751C55.6345 32.5721 54.7158 36.4946 52.9165 40.0361Z" fill="black"/>
<path d="M33.919 29.7741C32.7162 29.0956 31.3336 28.7238 29.8562 28.7238C28.3788 28.7238 26.9867 29.1049 25.7839 29.7741C26.9867 30.4527 28.3693 30.8245 29.8562 30.8245C33.2466 30.8245 35.993 33.5294 35.993 36.8664C35.993 40.2034 33.2466 42.8897 29.8562 42.8897C26.4658 42.8897 23.7004 40.1941 23.7004 36.8664C23.7004 36.3737 23.7667 35.8997 23.8804 35.4349H21.6927C21.598 35.8997 21.5507 36.383 21.5507 36.8664C21.5507 40.9842 24.6948 44.4048 28.7576 44.9254C29.108 44.9811 29.4774 44.9997 29.8562 44.9997C30.235 44.9997 30.5854 44.9811 30.9358 44.9254C35.0081 44.4048 38.1427 40.9935 38.1427 36.8664C38.1427 33.8176 36.4381 31.1684 33.9095 29.7741H33.919Z" fill="black"/>
<path d="M30.9452 14.6229C30.5948 14.5672 30.2255 14.5486 29.8656 14.5486C29.5058 14.5486 29.1269 14.5672 28.7671 14.6229C24.7137 15.1528 21.5601 18.5641 21.5601 22.6819C21.5601 25.7307 23.2648 28.3799 25.7934 29.7741C26.9961 30.4527 28.3788 30.8245 29.8656 30.8245C31.3525 30.8245 32.7257 30.4434 33.9284 29.7741L29.8656 28.7238C26.4752 28.7238 23.7099 26.0189 23.7099 22.6819C23.7099 19.3449 26.4658 16.6586 29.8656 16.6586C33.2655 16.6586 36.0024 19.3635 36.0024 22.6819H38.1522C38.1522 18.5548 35.0175 15.1342 30.9452 14.6229Z" fill="black"/>
<path d="M30.9358 8.60901H28.7576V15.2923H30.9358V8.60901Z" fill="black"/>
<path d="M30.9358 44.0516H28.7576V50.7442H30.9358V44.0516Z" fill="black"/>
</svg>
