<svg width="681" height="141" viewBox="0 0 681 141" fill="none" xmlns="http://www.w3.org/2000/svg">
<path d="M529.533 118.922C478.258 114.563 426.438 118.159 375.163 120.774C324.434 123.389 273.814 127.747 223.085 129.709C174.429 131.561 124.9 131.561 77.4432 119.902C58.6789 115.326 -10.9237 97.5657 17.6591 65.7495C26.6049 55.8342 40.1327 50.2773 52.4604 46.0279C64.7882 41.7785 77.4432 38.8366 90.0982 35.8947C110.608 31.1005 131.009 26.1973 151.737 22.8196C176.501 18.7881 201.484 15.8462 226.576 13.8849C325.416 6.03983 425.893 9.30861 524.187 22.0568C544.151 24.6719 564.225 27.1779 584.08 30.7736C602.735 34.1513 621.718 38.5097 638.737 47.2265C646.701 51.2579 654.228 56.2701 660.665 62.4808C667.32 68.9094 673.756 80.6769 663.61 87.2145C654.119 93.3162 641.573 95.2775 630.664 97.0208C618.772 98.7642 606.881 99.9627 594.99 101.488C582.662 103.014 570.334 104.539 558.007 105.738C549.715 106.609 549.388 119.575 558.007 118.922C584.08 116.96 610.045 112.384 635.791 108.135C654.883 104.975 685.975 97.6746 680.084 71.7423C675.72 52.5655 653.465 40.471 636.882 33.3886C618.227 25.5435 598.372 21.512 578.407 18.4612C476.949 3.09792 374.836 -3.22172 272.287 1.57249C220.903 3.9696 169.628 9.52653 119.227 19.8777C102.862 23.2554 86.389 27.069 70.1338 31.1005C55.406 34.8051 40.5691 39.1635 27.1504 46.2458C15.8045 52.2386 4.02228 61.3911 1.40401 74.6842C-2.08703 92.2266 10.4589 105.193 24.9685 112.82C44.4965 123.062 67.0792 128.728 88.5709 132.868C113.445 137.663 138.755 140.06 164.174 140.714C218.176 142.239 272.069 137.336 325.852 133.958C379.964 130.471 434.184 128.619 488.404 125.786C502.259 125.023 516.005 124.152 529.751 122.953C532.151 122.735 532.151 119.14 529.533 118.922Z" fill="#0099F5"/>
</svg>
