<svg width="481" height="100" viewBox="0 0 481 100" fill="none" xmlns="http://www.w3.org/2000/svg">
<g clip-path="url(#clip0_1770_23)">
<path d="M42.445 17.3513C32.7225 16.6215 27.8578 20.4997 27.8578 28.979V29.6602H42.445V46.6257H27.8578V98.0783H10.1114V46.6257H0.200195V29.6602H10.1114V28.979C10.1114 19.3112 12.8163 11.9649 18.2332 6.94678C23.6431 1.93566 31.716 -0.253665 42.445 0.385757V17.3513Z" fill="black"/>
<path d="M61.5745 71.1195C63.9579 79.6961 70.4232 83.9844 80.9774 83.9844C87.7643 83.9844 92.9016 81.7047 96.3894 77.1453L110.697 85.3536C103.903 95.1186 93.9081 99.9977 80.6979 99.9977C69.3189 99.9977 60.1975 96.5782 53.3128 89.7322C46.4351 82.8932 42.9893 74.2679 42.9893 63.8704C42.9893 53.4728 46.3792 44.9657 53.173 38.0781C59.9599 31.1904 68.6758 27.75 79.3209 27.75C89.4138 27.75 97.7384 31.2182 104.295 38.1476C110.851 45.0839 114.136 53.6605 114.136 63.8704C114.136 66.1501 113.905 68.5687 113.451 71.1195H61.5745ZM61.2949 57.4345H96.3894C95.3759 52.7847 93.293 49.3166 90.1268 47.0369C86.9605 44.7572 83.3609 43.6174 79.3279 43.6174C74.554 43.6174 70.6119 44.8267 67.4946 47.2454C64.3773 49.6641 62.3084 53.0628 61.3019 57.4414L61.2949 57.4345Z" fill="black"/>
<path d="M163.407 27.75C170.928 27.75 177.141 30.259 182.055 35.2771C186.962 40.2952 189.415 47.2315 189.415 56.0722V98.0794H171.662V58.2615C171.662 53.7022 170.424 50.2132 167.943 47.7945C165.469 45.3758 162.163 44.1665 158.032 44.1665C153.447 44.1665 149.777 45.5843 147.023 48.4061C144.27 51.2349 142.893 55.4745 142.893 61.132V98.0794H125.139V29.6683H142.893V37.3344C147.205 30.9471 154.041 27.757 163.4 27.757L163.407 27.75Z" fill="black"/>
<path d="M255.324 2.28906H273.078V98.0703H255.324V89.9941C250.096 96.6524 242.666 99.9816 233.035 99.9816C223.403 99.9816 215.855 96.4926 209.298 89.5145C202.735 82.5365 199.457 73.9807 199.457 63.8612C199.457 53.7417 202.735 45.1859 209.298 38.2079C215.855 31.2298 223.767 27.7408 233.035 27.7408C242.303 27.7408 250.096 31.07 255.324 37.7283V2.28906ZM222.641 77.7547C226.262 81.3619 230.833 83.162 236.334 83.162C241.835 83.162 246.378 81.3619 249.956 77.7547C253.535 74.1545 255.324 69.5256 255.324 63.8682C255.324 58.2107 253.535 53.5818 249.956 49.9816C246.378 46.3814 241.835 44.5743 236.334 44.5743C230.833 44.5743 226.262 46.3744 222.641 49.9816C219.014 53.5888 217.21 58.2176 217.21 63.8682C217.21 69.5187 219.021 74.1545 222.641 77.7547Z" fill="black"/>
<path d="M303.867 49.9745C303.867 51.7677 305.062 53.2203 307.446 54.3392C309.829 55.4582 312.737 56.4452 316.162 57.2931C319.587 58.148 323.004 59.2183 326.429 60.518C329.854 61.8177 332.755 63.9931 335.145 67.0373C337.529 70.0815 338.724 73.8903 338.724 78.4566C338.724 85.3581 336.131 90.6612 330.952 94.3796C325.772 98.0979 319.307 99.9536 311.563 99.9536C297.688 99.9536 288.232 94.6228 283.185 83.9681L298.317 75.5027C300.295 81.327 304.713 84.2391 311.556 84.2391C317.769 84.2391 320.88 82.3139 320.88 78.4635C320.88 76.6703 319.684 75.2177 317.301 74.0988C314.911 72.9798 312.01 71.972 308.585 71.0754C305.16 70.1788 301.735 69.0598 298.317 67.7184C294.893 66.377 291.985 64.2503 289.601 61.3381C287.218 58.426 286.023 54.7771 286.023 50.3846C286.023 43.754 288.476 38.5414 293.39 34.7326C298.296 30.9239 304.405 29.0195 311.695 29.0195C317.189 29.0195 322.187 30.2497 326.695 32.7171C331.196 35.1844 334.754 38.6943 337.368 43.2606L322.508 51.3228C320.348 46.7565 316.742 44.4699 311.695 44.4699C309.445 44.4699 307.572 44.9634 306.09 45.9503C304.601 46.9372 303.86 48.2786 303.86 49.9814L303.867 49.9745Z" fill="black"/>
<path d="M405.209 89.6881C398.276 96.5411 389.804 99.9675 379.809 99.9675C369.814 99.9675 361.364 96.5411 354.472 89.6881C347.581 82.8352 344.135 74.4393 344.135 64.4935C344.135 54.5477 347.581 46.1519 354.472 39.2989C361.364 32.446 369.807 29.0195 379.809 29.0195C389.811 29.0195 398.276 32.446 405.209 39.2989C412.143 46.1519 415.617 54.5477 415.617 64.4935C415.617 74.4393 412.15 82.8352 405.209 89.6881ZM366.767 77.7963C370.234 81.2923 374.581 83.0368 379.809 83.0368C385.038 83.0368 389.399 81.2923 392.915 77.7963C396.431 74.3003 398.185 69.8661 398.185 64.4935C398.185 59.121 396.431 54.6868 392.915 51.1908C389.399 47.6948 385.031 45.9503 379.809 45.9503C374.588 45.9503 370.234 47.6948 366.767 51.1908C363.3 54.6868 361.567 59.121 361.567 64.4935C361.567 69.8661 363.3 74.3003 366.767 77.7963Z" fill="black"/>
<path d="M426.555 98.0817V0H443.987V98.0817H426.555Z" fill="black"/>
<path d="M476.818 96.462C474.567 98.7 471.862 99.819 468.71 99.819C465.558 99.819 462.853 98.7 460.602 96.462C458.351 94.224 457.226 91.5343 457.226 88.3997C457.226 85.2652 458.351 82.5754 460.602 80.3374C462.853 78.0995 465.558 76.9805 468.71 76.9805C471.862 76.9805 474.567 78.0995 476.818 80.3374C479.068 82.5754 480.194 85.2652 480.194 88.3997C480.194 91.5343 479.068 94.224 476.818 96.462Z" fill="#0099F5"/>
</g>
<defs>
<clipPath id="clip0_1770_23">
<rect width="480" height="100" fill="white" transform="translate(0.200195)"/>
</clipPath>
</defs>
</svg>
