<svg width="225" height="29" viewBox="0 0 225 29" fill="none" xmlns="http://www.w3.org/2000/svg">
<path d="M1.74526 28.9813C30.455 27.8619 59.2572 24.201 87.9883 21.7708C116.394 19.3218 144.853 16.876 173.254 14.5039C181.191 13.8049 189.069 13.1796 197.002 12.5575C205.21 11.8742 213.5 11.6586 221.739 10.4368C225.696 9.81651 225.307 0.533127 221.381 0.614999C214.19 0.662541 206.941 1.71002 199.768 2.37603C192.542 3.03891 185.369 3.70493 178.142 4.36781C163.743 5.69671 149.339 7.10253 134.922 8.7391C106.639 11.8898 78.2981 15.1142 50.0253 19.0371C33.8856 21.2688 17.7637 23.1927 1.67035 26.5074C0.580366 26.5216 0.655275 28.9955 1.74526 28.9813Z" fill="#0099F5"/>
</svg>
