<svg width="69" height="67" viewBox="0 0 69 67" fill="none" xmlns="http://www.w3.org/2000/svg">
<path d="M63.2837 52.5585L59.7518 39.3173L30.2271 29.8377L40.6204 59.0137L54.1799 61.5088L55.1614 61.6884L56.4991 60.3935L62.2058 54.8551L63.5435 53.5603L63.274 52.5679L63.2837 52.5585ZM54.3723 59.1176L42.4585 56.9249L34.1438 33.6087L36.8095 34.4688H36.8192L57.7405 41.1886L60.8489 52.8325L54.3723 59.1176Z" fill="black"/>
<path d="M60.0214 67L53.9298 61.2631L55.6139 59.543L59.9636 63.6448L65.5548 57.993L61.3687 54.0518L63.0528 52.3317L69 57.9363L60.0214 67Z" fill="black"/>
<path d="M32.9946 30.833L31.3069 32.5434L49.7589 50.1046L51.4466 48.3942L32.9946 30.833Z" fill="black"/>
<path d="M23.6639 50.7155L22.5668 51.982L21.1618 53.5793L17.8032 57.4259L24.6359 63.1912L30.5061 56.4808L23.6735 50.7155H23.6639ZM24.3953 60.2424L20.7961 57.1991L23.8948 53.6643L27.494 56.7076L24.3953 60.2424Z" fill="black"/>
<path d="M27.677 19.7626L26.7627 18.9781L25.9351 18.2787L25.146 17.6172L21.9606 14.9236L16.0807 21.6339L18.7175 23.8644L19.141 24.233L20.3439 25.2443L20.7769 25.6129L22.9038 27.4086L28.7837 20.6983L27.6673 19.7626H27.677ZM22.6823 24.4599L22.028 23.9117L21.8644 23.7605L20.4112 22.5413L20.2381 22.3995L19.0832 21.4166L22.182 17.8818L23.635 19.101L23.9334 19.3562L25.2518 20.462L25.6561 20.7928L25.8003 20.9251L22.692 24.4599H22.6823Z" fill="black"/>
<path d="M57.2017 18.0709L55.0557 20.5282L51.3218 24.7813L58.164 30.5465L64.0344 23.8362L57.2017 18.0709ZM57.9331 27.5977L54.3339 24.5544L57.4327 21.0197L61.0319 24.063L57.9331 27.5977Z" fill="black"/>
<path d="M8.38198 36.8978C7.98742 36.3023 7.46778 35.8014 6.84226 35.4423C6.16861 35.0548 5.37948 34.8279 4.54224 34.8279C2.03052 34.8279 0 36.8222 0 39.2889C0 41.7557 2.03052 43.7594 4.54224 43.7594C7.05396 43.7594 9.09411 41.7557 9.09411 39.2889C9.09411 38.41 8.83428 37.5877 8.38198 36.8978ZM4.54224 41.6612C3.2142 41.6612 2.12674 40.5932 2.12674 39.2795C2.12674 37.9658 3.20458 36.9072 4.54224 36.9072C5.8799 36.9072 6.96737 37.9658 6.96737 39.2795C6.96737 40.5932 5.8799 41.6612 4.54224 41.6612Z" fill="black"/>
<path d="M40.5435 8.92198C38.0414 8.92198 36.0012 6.91831 36.0012 4.46099C36.0012 2.00367 38.0414 0 40.5435 0C43.0456 0 45.0857 2.00367 45.0857 4.46099C45.0857 6.91831 43.0456 8.92198 40.5435 8.92198ZM40.5435 2.08873C39.2154 2.08873 38.128 3.15672 38.128 4.46099C38.128 5.76526 39.2154 6.83325 40.5435 6.83325C41.8715 6.83325 42.959 5.76526 42.959 4.46099C42.959 3.15672 41.8715 2.08873 40.5435 2.08873Z" fill="black"/>
<path d="M21.8644 23.7605L20.3536 25.2443L16.5908 28.8925L8.38198 36.8978L7.69873 37.5593L6.19741 36.0754L6.84226 35.4423L18.7272 23.8739L20.2381 22.3995L20.4112 22.5413L21.8644 23.7605Z" fill="black"/>
<path d="M38.6477 7.4098L26.7626 18.9876L25.2518 20.462L23.9237 19.3562L23.635 19.101L37.1463 5.93541L38.6477 7.4098Z" fill="black"/>
<path d="M22.5668 51.982C22.9806 52.4924 23.2694 52.8042 23.3368 52.8798L21.7778 54.2975C21.7778 54.2975 21.5275 54.0329 21.1522 53.5792C18.9388 50.8383 11.7309 40.6215 16.5811 28.8925C17.2162 27.3614 18.0535 25.8114 19.141 24.233C19.5259 23.6754 19.9493 23.1083 20.4112 22.5413L21.8644 23.7605L22.028 23.9117C21.5661 24.4788 21.1522 25.0459 20.7865 25.6035C12.5296 37.7389 20.0166 48.7969 22.5668 51.982Z" fill="black"/>
<path d="M56.1816 21.5111L54.7284 23.0328C54.382 22.702 54.0163 22.3901 53.6602 22.0971C44.0175 14.1013 33.3355 17.1351 27.677 19.7626C26.9071 20.1312 26.2142 20.4809 25.6464 20.7928L25.2422 20.462L23.9237 19.3562C24.4626 19.0443 25.1363 18.6663 25.935 18.2882C26.753 17.8818 27.7058 17.4565 28.7644 17.0501C35.2217 14.5172 45.5862 12.6459 55.0557 20.5282C55.4406 20.8401 55.8159 21.1709 56.1912 21.5111H56.1816Z" fill="black"/>
</svg>
