<svg width="72" height="67" viewBox="0 0 72 67" fill="none" xmlns="http://www.w3.org/2000/svg">
<path d="M8.2987 17C8.04676 17 7.8049 16.99 7.55296 16.97C5.34594 16.7698 3.35053 15.7292 1.92957 14.0482C0.50861 12.3572 -0.166602 10.2259 0.0349522 8.03463C0.236507 5.84332 1.2745 3.86214 2.97763 2.4513C4.68077 1.04046 6.83741 0.380063 9.03436 0.570176C11.2414 0.770296 13.2368 1.80091 14.6577 3.49192C16.0787 5.18293 16.7539 7.3142 16.5524 9.50551C16.1593 13.7781 12.5414 17 8.2987 17ZM8.27853 3.06166C6.93819 3.06166 5.64822 3.52194 4.61022 4.39246C3.43112 5.37304 2.70557 6.74386 2.57456 8.26477C2.43347 9.78568 2.90711 11.2666 3.88465 12.4373C4.87227 13.608 6.25291 14.3284 7.78473 14.4585C10.9391 14.7486 13.7407 12.4172 14.0228 9.28538C14.305 6.15351 11.967 3.37185 8.81267 3.09168C8.64135 3.07167 8.45993 3.07167 8.28861 3.07167L8.27853 3.06166Z" fill="black"/>
<path d="M7.91568 23.0638C7.79474 23.0638 7.67383 23.0638 7.55289 23.0438C6.47458 22.9437 5.497 22.4434 4.80163 21.6129C4.10627 20.7824 3.77372 19.7418 3.8745 18.6711C4.07605 16.4598 6.06136 14.8389 8.27846 15.019C9.35678 15.119 10.3343 15.6193 11.0297 16.4498C11.725 17.2703 12.0576 18.3209 11.9569 19.3916C11.7654 21.4828 9.99169 23.0538 7.91568 23.0538V23.0638ZM7.91568 17.5305C7.13969 17.5305 6.48465 18.1208 6.41411 18.9013C6.37379 19.3015 6.50477 19.6917 6.75671 20.0019C7.00866 20.3121 7.38155 20.5022 7.78466 20.5323C8.60096 20.6123 9.34671 19.9919 9.42734 19.1714C9.50796 18.3509 8.88315 17.6105 8.05678 17.5405C8.01647 17.5405 7.96608 17.5405 7.92576 17.5405L7.91568 17.5305Z" fill="black"/>
<path d="M10.8786 15.369H8.79246V16.0695H10.8786V15.369Z" fill="black"/>
<path d="M22.2563 33.3497C21.3997 33.3497 19.3741 33.1896 17.933 31.7988C17.2376 31.1284 16.4414 29.9077 16.5422 27.8564C16.6228 26.1554 17.2275 24.8346 18.326 23.9341C20.1098 22.4732 22.4579 22.7634 22.7199 22.7934L23.8083 22.9535V33.2497L22.6291 33.3397C22.5788 33.3397 22.4478 33.3497 22.2563 33.3497ZM21.2687 25.3349C20.8253 25.405 20.3314 25.5651 19.9384 25.8953C19.4144 26.3355 19.1322 27.0159 19.0919 27.9765C19.0515 28.877 19.2532 29.5274 19.7167 29.9777C20.1299 30.3879 20.7346 30.5981 21.2788 30.7081V25.3249L21.2687 25.3349Z" fill="black"/>
<path d="M39.328 45.1569H35.7907C27.7789 45.1569 21.2586 38.6831 21.2586 30.7283V16.2297H53.85V30.7283C53.85 38.6831 47.3297 45.1569 39.3179 45.1569H39.328ZM23.8083 18.7612V30.7283C23.8083 37.2922 29.1898 42.6254 35.7907 42.6254H39.328C45.939 42.6254 51.3104 37.2822 51.3104 30.7283V18.7612H23.8083Z" fill="black"/>
<path d="M18.2957 25.0249C18.1244 24.4646 14.0933 11.1667 22.478 4.6828C26.7409 1.39083 32.2736 1.76105 37.1512 2.09125C41.8575 2.40143 45.9289 2.6716 48.1863 0L50.1313 1.63097C47.0374 5.29316 41.9179 4.95296 36.9698 4.61275C32.334 4.30257 27.5269 3.98238 24.03 6.68399C17.036 12.0872 20.6741 24.1644 20.7144 24.2845L18.2856 25.0349L18.2957 25.0249Z" fill="black"/>
<path d="M47.4405 10.026L47.2188 7.5045C47.2188 7.5045 52.1468 7.03422 52.681 3.77227L55.1903 4.18252C54.3337 9.39563 47.7227 10.006 47.4405 10.026Z" fill="black"/>
<path d="M52.5498 18.541L51.1188 16.4498C55.4724 13.508 54.9584 8.29492 54.9483 8.24489L57.4778 7.97473C57.5081 8.24489 58.143 14.7488 52.5498 18.541Z" fill="black"/>
<path d="M34.6821 23.7742H30.9432V26.2957H34.6821V23.7742Z" fill="black"/>
<path d="M44.0645 23.7742H40.3256V26.2957H44.0645V23.7742Z" fill="black"/>
<path d="M37.514 36.5816C34.4302 36.5816 32.1123 33.78 32.0115 33.6599L33.9868 32.069C34.4503 32.6293 35.9721 34.0601 37.524 34.0601C37.5543 34.0601 37.5845 34.0601 37.6047 34.0601C38.5923 34.0301 39.5496 33.3797 40.4465 32.139L42.5125 33.6099C41.1319 35.531 39.4992 36.5316 37.6752 36.5917C37.6248 36.5917 37.5744 36.5917 37.524 36.5917L37.514 36.5816Z" fill="black"/>
<path d="M37.3224 57.5042C33.3921 57.5042 30.1873 54.3223 30.1873 50.42V42.6754H44.4574V50.42C44.4574 54.3323 41.2527 57.5042 37.3224 57.5042ZM32.6362 45.1068V50.41C32.6362 52.9715 34.7425 55.0628 37.3224 55.0628C39.9023 55.0628 42.0086 52.9715 42.0086 50.41V45.1068H32.6362Z" fill="black"/>
<path d="M72 67H69.5411V49.8898L62.527 36.6619L55.2206 49.8998V67H52.7717V49.2794L62.5673 31.5188L72 49.2894V67Z" fill="black"/>
<path d="M57.9517 53.4618C57.9517 53.4618 57.8509 53.4618 57.8106 53.4618C55.1803 53.3617 53.2051 50.5901 52.9833 50.2799L55.009 48.8991C55.3819 49.4394 56.7222 50.9803 57.9114 51.0304C58.0928 51.0404 58.6571 51.0604 59.3727 50.1698C60.3502 48.9591 61.2773 48.3588 62.275 48.2687C63.5247 48.1586 64.4317 48.9491 65.0968 49.5295C65.3689 49.7696 65.8526 50.1598 65.9937 50.1498C67.0821 50.0298 68.6845 48.719 69.4504 47.9185L71.2342 49.5895C70.9721 49.8697 68.5938 52.3111 66.2658 52.5713C65.0364 52.7114 64.1394 51.9309 63.4844 51.3505C63.1417 51.0504 62.7184 50.6501 62.4967 50.6902C62.4262 50.6902 62.0432 50.7702 61.2975 51.6908C60.1285 53.1316 58.8687 53.4618 57.9718 53.4618H57.9517Z" fill="black"/>
<path d="M65.4091 38.8931H59.2213V41.3245H65.4091V38.8931Z" fill="black"/>
<path d="M13.015 65.9994H10.5662C10.5863 59.6356 12.491 54.6126 16.1996 51.0504C22.1656 45.317 30.6309 45.4971 30.9836 45.5171L30.9131 47.9486C30.8325 47.9486 23.1029 47.7985 17.8927 52.8215C14.6779 55.9133 13.0352 60.356 13.015 66.0094V65.9994Z" fill="black"/>
<path d="M52.8423 51.8609C51.7338 48.7991 45.5863 48.3989 43.2987 48.5089L43.1878 46.0775C43.5909 46.0575 53.2152 45.6672 55.1602 51.0404L52.8523 51.8609H52.8423Z" fill="black"/>
</svg>
