<svg width="69" height="67" viewBox="0 0 69 67" fill="none" xmlns="http://www.w3.org/2000/svg">
<path d="M63.0142 52.2699L59.5386 39.2473L30.4836 29.9242L40.7115 58.6185L54.0553 61.0725L55.0212 61.2491L56.3376 59.9756L61.9536 54.5286L63.27 53.2552L63.0048 52.2792L63.0142 52.2699ZM54.2447 58.7208L42.5204 56.5643L34.3379 33.633L36.9613 34.4788H36.9707L57.5593 41.0877L60.6182 52.5395L54.2447 58.7208Z" fill="black"/>
<path d="M59.8038 66.473L53.8091 60.8308L55.4665 59.1391L59.747 63.1732L65.2493 57.6147L61.1297 53.7386L62.787 52.0469L68.6397 57.5589L59.8038 66.473Z" fill="black"/>
<path d="M33.207 30.9031L31.5462 32.5852L49.7046 49.8565L51.3655 48.1744L33.207 30.9031Z" fill="black"/>
<path d="M24.0247 50.4574L22.9451 51.703L21.5624 53.2739L18.2573 57.057L24.9812 62.7271L30.7581 56.1275L24.0342 50.4574H24.0247ZM24.7445 59.827L21.2025 56.8339L24.252 53.3575L27.7939 56.3506L24.7445 59.827Z" fill="black"/>
<path d="M27.9739 20.0154L27.0742 19.2439L26.2597 18.5561L25.4832 17.9054L22.3485 15.2563L16.5621 21.8559L19.157 24.0496L19.5737 24.4121L20.7575 25.4067L21.1836 25.7692L23.2767 27.5353L29.063 20.9357L27.9644 20.0154H27.9739ZM23.0587 24.6352L22.4148 24.096L22.2538 23.9473L20.8238 22.7482L20.6534 22.6088L19.5168 21.6421L22.5664 18.1657L23.9963 19.3648L24.2899 19.6157L25.5874 20.7033L25.9852 21.0286L26.1271 21.1588L23.0682 24.6352H23.0587Z" fill="black"/>
<path d="M57.029 18.3517L54.9171 20.7684L51.2426 24.9513L57.976 30.6214L63.7531 24.0218L57.029 18.3517ZM57.7488 27.7213L54.2069 24.7282L57.2564 21.2518L60.7983 24.2448L57.7488 27.7213Z" fill="black"/>
<path d="M8.98587 36.8677C8.59758 36.2821 8.08621 35.7895 7.47063 35.4363C6.80771 35.0552 6.03112 34.8321 5.2072 34.8321C2.73543 34.8321 0.737213 36.7934 0.737213 39.2194C0.737213 41.6455 2.73543 43.6161 5.2072 43.6161C7.67897 43.6161 9.68667 41.6455 9.68667 39.2194C9.68667 38.355 9.43098 37.5463 8.98587 36.8677ZM5.2072 41.5525C3.90029 41.5525 2.83013 40.5022 2.83013 39.2101C2.83013 37.9181 3.89082 36.877 5.2072 36.877C6.52358 36.877 7.59375 37.9181 7.59375 39.2101C7.59375 40.5022 6.52358 41.5525 5.2072 41.5525Z" fill="black"/>
<path d="M40.6358 9.3538C38.1735 9.3538 36.1658 7.38321 36.1658 4.96645C36.1658 2.54969 38.1735 0.579102 40.6358 0.579102C43.0981 0.579102 45.1058 2.54969 45.1058 4.96645C45.1058 7.38321 43.0981 9.3538 40.6358 9.3538ZM40.6358 2.63335C39.3289 2.63335 38.2587 3.68371 38.2587 4.96645C38.2587 6.24919 39.3289 7.29954 40.6358 7.29954C41.9427 7.29954 43.0128 6.24919 43.0128 4.96645C43.0128 3.68371 41.9427 2.63335 40.6358 2.63335Z" fill="black"/>
<path d="M22.2538 23.9473L20.767 25.4067L17.0641 28.9946L8.98587 36.8677L8.31348 37.5184L6.83605 36.059L7.47063 35.4363L19.1665 24.0589L20.6534 22.6088L20.8238 22.7482L22.2538 23.9473Z" fill="black"/>
<path d="M38.7701 7.86658L27.0741 19.2532L25.5874 20.7033L24.2804 19.6157L23.9963 19.3648L37.2927 6.41653L38.7701 7.86658Z" fill="black"/>
<path d="M22.9451 51.703C23.3523 52.2049 23.6365 52.5116 23.7028 52.5859L22.1686 53.9802C22.1686 53.9802 21.9223 53.72 21.553 53.2738C19.3748 50.5782 12.2815 40.53 17.0546 28.9947C17.6796 27.4889 18.5036 25.9644 19.5737 24.4121C19.9525 23.8637 20.3692 23.306 20.8238 22.7482L22.2538 23.9473L22.4148 24.096C21.9602 24.6538 21.553 25.2115 21.1931 25.7599C13.0675 37.695 20.4354 48.5705 22.9451 51.703Z" fill="black"/>
<path d="M56.0251 21.7351L54.5951 23.2316C54.2542 22.9063 53.8943 22.5996 53.5439 22.3114C44.0546 14.4476 33.5425 17.4314 27.9739 20.0154C27.2163 20.378 26.5344 20.7219 25.9757 21.0287L25.5779 20.7033L24.2804 19.6157C24.8107 19.309 25.4737 18.9372 26.2597 18.5654C27.0647 18.1657 28.0023 17.7475 29.044 17.3478C35.3987 14.8566 45.5983 13.0162 54.9171 20.7684C55.296 21.0752 55.6653 21.4005 56.0346 21.7351H56.0251Z" fill="black"/>
</svg>
