<svg width="69" height="63" viewBox="0 0 69 63" fill="none" xmlns="http://www.w3.org/2000/svg">
<path d="M8.28013 16.4672C8.04337 16.4672 7.81609 16.4579 7.57933 16.4394C5.50532 16.2534 3.63017 15.2867 2.29485 13.7251C0.959525 12.1543 0.325006 10.1744 0.514413 8.13872C0.70382 6.10306 1.67925 4.26261 3.27974 2.95198C4.88024 1.64136 6.9069 1.02787 8.97145 1.20448C11.0455 1.39038 12.9206 2.34779 14.2559 3.91869C15.5912 5.48958 16.2258 7.46946 16.0364 9.50511C15.667 13.4742 12.2672 16.4672 8.28013 16.4672ZM8.26117 3.51899C7.00161 3.51899 5.78939 3.94657 4.81394 4.75525C3.70591 5.66619 3.02408 6.93963 2.90096 8.35251C2.76838 9.76538 3.21347 11.1411 4.1321 12.2286C5.0602 13.3162 6.35763 13.9854 7.79713 14.1062C10.7614 14.3758 13.3941 12.21 13.6593 9.30062C13.9245 6.39121 11.7274 3.80714 8.76312 3.54688C8.60213 3.52829 8.43164 3.52829 8.27065 3.52829L8.26117 3.51899Z" fill="black"/>
<path d="M7.92019 22.1003C7.80654 22.1003 7.69291 22.1003 7.57927 22.0817C6.56594 21.9887 5.64727 21.524 4.99382 20.7525C4.34036 19.981 4.02786 19.0143 4.12256 18.0197C4.31197 15.9654 6.17763 14.4596 8.26111 14.6269C9.27444 14.7199 10.193 15.1846 10.8465 15.9561C11.5 16.7184 11.8125 17.6944 11.7178 18.6889C11.5379 20.6316 9.87108 22.091 7.92019 22.091V22.1003ZM7.92019 16.96C7.19097 16.96 6.5754 17.5084 6.50911 18.2335C6.47123 18.6053 6.59431 18.9678 6.83107 19.2559C7.06783 19.5441 7.41825 19.7207 7.79707 19.7486C8.56417 19.823 9.26498 19.2467 9.34074 18.4844C9.4165 17.7222 8.82936 17.0344 8.05279 16.9693C8.0149 16.9693 7.96755 16.9693 7.92967 16.9693L7.92019 16.96Z" fill="black"/>
<path d="M10.7045 14.9521H8.74413V15.6028H10.7045V14.9521Z" fill="black"/>
<path d="M21.3965 31.6556C20.5915 31.6556 18.688 31.5069 17.3337 30.2148C16.6803 29.5921 15.9321 28.458 16.0268 26.5525C16.1026 24.9723 16.6708 23.7454 17.7031 22.9088C19.3794 21.5517 21.5859 21.8213 21.8322 21.8491L22.855 21.9979V31.5626L21.7469 31.6463C21.6996 31.6463 21.5765 31.6556 21.3965 31.6556ZM20.4684 24.2101C20.0517 24.2752 19.5877 24.4239 19.2183 24.7307C18.7259 25.1396 18.4607 25.7717 18.4228 26.6641C18.3849 27.5006 18.5744 28.1048 19.01 28.5231C19.3983 28.9042 19.9665 29.0994 20.4779 29.2017V24.2008L20.4684 24.2101Z" fill="black"/>
<path d="M37.4394 42.6241H34.1152C26.5863 42.6241 20.459 36.6101 20.459 29.2204V15.7516H51.0862V29.2204C51.0862 36.6101 44.9588 42.6241 37.4299 42.6241H37.4394ZM22.855 18.1033V29.2204C22.855 35.3181 27.9122 40.2724 34.1152 40.2724H37.4394C43.6519 40.2724 48.6996 35.3088 48.6996 29.2204V18.1033H22.855Z" fill="black"/>
<path d="M17.6747 23.9222C17.5137 23.4016 13.7255 11.0483 21.6049 5.02497C25.6109 1.96684 30.8101 2.31076 35.3937 2.61751C39.8164 2.90566 43.6424 3.15663 45.7638 0.674805L47.5916 2.18993C44.6842 5.59198 39.8732 5.27594 35.2233 4.9599C30.8669 4.67175 26.3495 4.3743 23.0633 6.88401C16.4909 11.9034 19.9097 23.1228 19.9476 23.2343L17.6652 23.9315L17.6747 23.9222Z" fill="black"/>
<path d="M45.063 9.98864L44.8547 7.64624C44.8547 7.64624 49.4856 7.20936 49.9876 4.17912L52.3457 4.56023C51.5407 9.40304 45.3281 9.97005 45.063 9.98864Z" fill="black"/>
<path d="M49.8643 17.8988L48.5196 15.9561C52.6108 13.2233 52.1278 8.38052 52.1183 8.33404L54.4954 8.08307C54.5238 8.33404 55.1204 14.3759 49.8643 17.8988Z" fill="black"/>
<path d="M33.0734 22.7603H29.5599V25.1027H33.0734V22.7603Z" fill="black"/>
<path d="M41.8904 22.7603H38.3769V25.1027H41.8904V22.7603Z" fill="black"/>
<path d="M35.7347 34.658C32.8367 34.658 30.6585 32.0553 30.5638 31.9438L32.42 30.4658C32.8557 30.9863 34.2857 32.3156 35.7441 32.3156C35.7725 32.3156 35.801 32.3156 35.8199 32.3156C36.748 32.2877 37.6476 31.6835 38.4905 30.5309L40.432 31.8973C39.1345 33.682 37.6003 34.6115 35.8862 34.6673C35.8388 34.6673 35.7915 34.6673 35.7441 34.6673L35.7347 34.658Z" fill="black"/>
<path d="M35.5546 54.0944C31.8612 54.0944 28.8496 51.1385 28.8496 47.5133V40.3188H42.2597V47.5133C42.2597 51.1478 39.2481 54.0944 35.5546 54.0944ZM31.1509 42.5776V47.504C31.1509 49.8836 33.1302 51.8263 35.5546 51.8263C37.979 51.8263 39.9584 49.8836 39.9584 47.504V42.5776H31.1509Z" fill="black"/>
<path d="M68.1423 62.9156H65.8316V47.0208L59.2402 34.7325L52.3742 47.0301V62.9156H50.0729V46.4538L59.2781 29.9548L68.1423 46.4631V62.9156Z" fill="black"/>
<path d="M54.9407 50.3391C54.9407 50.3391 54.846 50.3391 54.8081 50.3391C52.3363 50.2461 50.4801 47.6714 50.2717 47.3832L52.1753 46.1005C52.5257 46.6024 53.7853 48.0339 54.9028 48.0803C55.0732 48.0896 55.6036 48.1082 56.276 47.281C57.1946 46.1562 58.0659 45.5985 59.0035 45.5149C60.1778 45.4126 61.0301 46.1469 61.6551 46.6861C61.9109 46.9091 62.3654 47.2717 62.498 47.2624C63.5208 47.1508 65.0266 45.9331 65.7464 45.1895L67.4226 46.7418C67.1764 47.0021 64.9414 49.2701 62.7537 49.5118C61.5984 49.6419 60.7555 48.9169 60.1399 48.3778C59.8179 48.0989 59.4201 47.7271 59.2118 47.7643C59.1455 47.7643 58.7856 47.8387 58.0848 48.6938C56.9862 50.0323 55.8025 50.3391 54.9596 50.3391H54.9407Z" fill="black"/>
<path d="M61.9486 36.8052H56.1338V39.064H61.9486V36.8052Z" fill="black"/>
<path d="M12.7122 61.9861H10.4109C10.4299 56.0743 12.2197 51.4081 15.7048 48.099C21.3113 42.7728 29.2664 42.9402 29.5979 42.9587L29.5316 45.2175C29.4558 45.2175 22.1921 45.0781 17.2959 49.7443C14.2749 52.6165 12.7312 56.7436 12.7122 61.9954V61.9861Z" fill="black"/>
<path d="M50.1392 48.8519C49.0975 46.0076 43.3205 45.6358 41.1707 45.738L41.0666 43.4793C41.4454 43.4607 50.4896 43.0982 52.3174 48.0897L50.1486 48.8519H50.1392Z" fill="black"/>
</svg>
