<svg width="78" height="87" viewBox="0 0 78 87" fill="none" xmlns="http://www.w3.org/2000/svg">
<path d="M28.3869 63.4939C28.4244 62.288 28.4019 60.9523 27.869 59.6778C27.3736 58.4948 26.638 57.5026 25.6773 56.6707C20.2731 52.0073 17.5861 46.0618 18.0214 38.8799C18.4943 31.0492 22.2622 25.096 29.0099 21.3181C37.1011 16.7922 46.6859 18.082 53.4186 24.5236C58.3049 29.2022 60.4741 35.0561 59.9487 41.8641C59.4833 47.9012 56.8263 52.8316 52.2702 56.7088C50.4989 58.22 49.6057 60.1433 49.6057 62.4864C49.6057 63.4939 49.6207 64.509 49.6057 65.5164C49.5832 66.6918 48.7425 67.5695 47.6167 67.6306C46.5809 67.684 45.5826 66.9131 45.5301 65.8065C45.4175 63.5244 45.2974 61.2271 45.9804 58.9985C46.6559 56.7851 47.8794 54.9534 49.6357 53.4727C52.8332 50.7862 54.9048 47.3898 55.6253 43.2303C56.6011 37.5748 55.1975 32.5451 51.3545 28.3474C44.9596 21.3715 34.4365 21.0204 27.5312 27.4697C20.0104 34.4913 20.3032 46.6648 28.1692 53.3125C31.089 55.7853 32.5451 58.9222 32.5226 62.7841C32.515 63.6771 32.5376 64.5777 32.515 65.4706C32.4925 66.4552 31.9746 67.2108 31.1415 67.5084C30.3083 67.8061 29.3551 67.5848 28.8672 66.8444C28.6045 66.4476 28.4694 65.9133 28.4019 65.4248C28.3268 64.8372 28.3869 64.2342 28.3869 63.4939Z" fill="black"/>
<path d="M37.4313 41.3753C39.3153 39.4596 41.1542 37.5821 42.9931 35.7122C43.4284 35.2695 43.8638 34.8116 44.3066 34.3842C45.1547 33.5676 46.4157 33.5523 47.2188 34.3308C48.0295 35.1245 48.067 36.4754 47.2414 37.3302C44.4717 40.1771 41.6871 43.0086 38.8799 45.8249C38.0017 46.7103 36.7933 46.6721 35.9001 45.7791C34.3314 44.2069 32.7777 42.627 31.239 41.0395C30.3984 40.1694 30.3909 38.8567 31.1865 38.04C31.9896 37.2081 33.2956 37.2158 34.1663 38.0858C35.1345 39.0475 36.0803 40.0244 37.0335 41.0014C37.1536 41.1158 37.2737 41.2227 37.4313 41.3753Z" fill="black"/>
<path d="M39.0302 72.804C41.5071 72.804 43.984 72.804 46.4609 72.804C47.7143 72.804 48.6075 73.6664 48.615 74.8723C48.6225 76.0935 47.7068 76.9788 46.4309 76.9788C41.4921 76.9788 36.5533 76.9788 31.6145 76.9788C30.2484 76.9788 29.3252 76.0553 29.3852 74.7731C29.4378 73.6435 30.3009 72.8116 31.4418 72.8116C33.9713 72.804 36.5007 72.8116 39.0302 72.804Z" fill="black"/>
<path d="M20.6335 5.66992C21.4216 5.66992 22.0295 6.01337 22.4198 6.69264C23.6883 8.89073 24.9418 11.1041 26.1802 13.3174C26.7432 14.3325 26.4129 15.5842 25.4747 16.149C24.4764 16.7519 23.223 16.4619 22.6225 15.4163C21.3465 13.2182 20.0856 11.0125 18.8621 8.79151C18.0665 7.35665 19.0498 5.67755 20.6335 5.66992Z" fill="black"/>
<path d="M53.7415 16.4549C51.9701 16.4396 51.0469 14.7147 51.8725 13.2264C52.7807 11.6007 53.7114 9.98271 54.6347 8.36467C54.9349 7.83042 55.2276 7.29616 55.5353 6.76953C56.1733 5.69339 57.3968 5.34993 58.4026 5.95288C59.3933 6.54057 59.7086 7.78462 59.1156 8.85314C57.8997 11.0283 56.6612 13.1883 55.4303 15.3558C55.025 16.0656 54.4095 16.4472 53.7415 16.4549Z" fill="black"/>
<path d="M5.15655 58.4707C5.17156 57.9746 5.4868 57.3716 6.11729 56.99C8.30898 55.6849 10.5082 54.3874 12.7224 53.1205C13.7432 52.5404 14.9741 52.9296 15.5145 53.9295C16.0549 54.9217 15.7472 56.1505 14.7564 56.7458C12.5948 58.0433 10.4256 59.3255 8.24142 60.5695C6.79281 61.3862 5.14904 60.3787 5.15655 58.4707Z" fill="black"/>
<path d="M72.8511 58.394C72.8436 60.3478 71.2448 61.3782 69.8713 60.615C67.6195 59.3557 65.3978 58.0353 63.1836 56.692C62.2154 56.1043 61.9602 54.8068 62.5381 53.8528C63.1011 52.914 64.317 52.563 65.2777 53.1125C67.4919 54.3871 69.6836 55.6769 71.8753 56.9897C72.5358 57.3713 72.8436 57.9971 72.8511 58.394Z" fill="black"/>
<path d="M15.7547 25.1407C15.7397 26.8885 14.066 27.8502 12.6323 27.0259C10.8009 25.9727 8.99205 24.8965 7.16814 23.828C6.83038 23.6296 6.48512 23.4311 6.15486 23.225C5.17161 22.6068 4.84886 21.3628 5.4193 20.3706C5.97473 19.3937 7.18316 19.0273 8.18142 19.5921C9.75764 20.4851 11.3188 21.4238 12.8875 22.3397C13.5105 22.7061 14.1335 23.0571 14.749 23.4387C15.4095 23.8509 15.7472 24.4615 15.7547 25.1407Z" fill="black"/>
<path d="M72.8511 21.7435C72.8436 22.2167 72.5058 22.8349 71.8378 23.2318C69.6761 24.5216 67.4995 25.7962 65.3228 27.0555C64.3095 27.6356 63.071 27.2845 62.5156 26.2923C61.9527 25.2925 62.2529 24.0408 63.2662 23.4378C65.4279 22.148 67.597 20.8581 69.7812 19.6217C71.2073 18.8051 72.8436 19.7973 72.8511 21.7435Z" fill="black"/>
<path d="M72.0105 38.0071C73.2189 38.0071 74.4198 38.0071 75.6283 38.0071C76.8742 38.0148 77.7749 38.8849 77.7824 40.0831C77.7824 41.2814 76.8742 42.1744 75.6433 42.1744C73.1964 42.182 70.757 42.182 68.3101 42.1744C67.0717 42.1744 66.156 41.2737 66.1635 40.0907C66.171 38.8849 67.0642 38.0148 68.3026 37.9995C68.3177 37.9995 68.3327 37.9995 68.3552 37.9995C69.5711 38.0071 70.7946 38.0071 72.0105 38.0071Z" fill="black"/>
<path d="M6.05729 38.0095C7.28073 38.0095 8.50417 38.0019 9.7201 38.0095C10.9661 38.0171 11.8517 38.9025 11.8442 40.1084C11.8367 41.2837 10.9435 42.1767 9.73512 42.1767C7.25821 42.1843 4.7813 42.1843 2.3044 42.1767C1.1335 42.1691 0.232805 41.2685 0.225299 40.1236C0.210288 38.9406 1.10347 38.0248 2.29689 38.0095C3.54285 38.0019 4.79632 38.0095 6.05729 38.0095Z" fill="black"/>
<path d="M41.0642 6.64724C41.0642 7.83787 41.0717 9.0285 41.0642 10.2191C41.0567 11.57 40.2235 12.4783 38.9926 12.4783C37.8367 12.4783 36.9585 11.5242 36.951 10.2268C36.9435 7.79208 36.9435 5.36502 36.951 2.93033C36.9585 1.63285 37.8217 0.678821 38.9926 0.671189C40.2085 0.663557 41.0642 1.59469 41.0717 2.93033C41.0717 3.55618 41.0717 4.18966 41.0717 4.8155C41.0642 5.41845 41.0642 6.02903 41.0642 6.64724Z" fill="black"/>
<path d="M39.0001 82.1533C40.156 82.1533 41.3119 82.1457 42.4678 82.1533C43.6912 82.161 44.5769 83.0311 44.5919 84.2141C44.5994 85.4199 43.7062 86.3282 42.4753 86.3282C40.1635 86.3358 37.8442 86.3358 35.5324 86.3282C34.3165 86.3205 33.4233 85.4428 33.4083 84.2675C33.3933 83.0616 34.2865 82.1686 35.5324 82.1533C36.6883 82.1381 37.8442 82.1457 39.0001 82.1533Z" fill="black"/>
</svg>
